<svg width="138" height="41" viewBox="0 0 138 41" fill="none" xmlns="http://www.w3.org/2000/svg">
<path d="M10.4688 28.9994C4.8531 28.5799 2.81603 26.3221 2.08047 25.5563C-0.0687646 23.3186 -1.10871 17.095 1.73382 12.8993C4.57635 8.70363 11.5093 8.14421 16.3624 10.0323C20.2449 11.5427 20.9382 15.137 20.7996 16.7454H14.9758C14.9758 13.8783 11.8554 13.6852 9.98352 13.6852C7.76496 13.6852 6.25473 15.0052 5.75493 16.5356C5.33841 17.8109 5.20029 19.8921 5.89359 21.5704C6.47822 22.9856 7.83429 23.8947 9.98352 23.8947C12.1328 23.8947 13.242 23.4751 13.9353 22.0765C13.9353 22.0765 13.658 26.8178 12.4794 27.3212C11.3008 27.8245 10.4688 28.9994 10.4688 28.9994Z" fill="#2B2E29"/>
<path d="M21.5659 17.6348V29.584H16.3755V27.8115C16.2778 27.896 16.1775 27.9793 16.0737 28.0576C15.6661 28.3651 15.044 28.856 14.0894 29.2246C13.1315 29.5943 11.877 29.8289 10.1753 29.7197C8.84029 29.634 7.76113 29.3993 7.01025 29.1836C6.635 29.0758 6.34106 28.9726 6.13721 28.8945C6.03523 28.8555 5.95482 28.8227 5.89893 28.7988C5.87135 28.787 5.84942 28.7777 5.8335 28.7705C5.82548 28.7669 5.81895 28.763 5.81396 28.7607C5.8115 28.7596 5.80884 28.7586 5.80713 28.7578L5.80518 28.7568H5.8042L6.12256 28.0781L5.80322 28.7568L3.95947 27.8896L5.92529 27.3535H5.92627C5.93768 27.3499 5.95975 27.3431 5.99463 27.3311C6.06797 27.3058 6.19575 27.2597 6.3999 27.1807C6.80889 27.0224 7.51638 26.7346 8.69287 26.2217C10.3191 25.5127 11.7145 24.1358 12.6431 22.916H9.67822V17.6348H21.5659ZM5.92236 27.3545C5.92138 27.3548 5.92013 27.3553 5.91943 27.3555L5.91748 27.3564C5.91832 27.3562 5.92058 27.3557 5.92432 27.3545H5.92236Z" fill="#4D7136" stroke="#FDFEFD" stroke-width="1.5"/>
<path d="M29.3533 29H24.0893V10.24H35.0373C39.9933 10.24 42.5973 12.312 42.5973 15.98C42.5973 18.948 41.1133 20.712 37.5293 21.16V21.44C39.4613 21.944 40.0773 22.868 40.7773 24.296L43.1013 29H37.0253L34.7853 24.408C34.1133 23.008 33.5533 22.616 31.5093 22.616H29.3533V29ZM29.3533 14.972V18.696H34.9813C36.5213 18.696 37.0813 18.416 37.0813 16.82C37.0813 15.336 36.5213 14.972 34.9813 14.972H29.3533ZM51.8088 29.28C47.0208 29.28 43.6608 27.236 43.6608 21.944C43.6608 17.352 46.9928 14.608 51.6968 14.608C56.5688 14.608 59.6768 17.044 59.6768 21.58C59.6768 22.056 59.6488 22.42 59.5928 22.924H48.5328C48.6168 24.632 49.3728 25.108 51.6128 25.108C53.7408 25.108 54.3008 24.744 54.3008 23.904V23.596H59.5648V23.932C59.5648 27.068 56.5688 29.28 51.8088 29.28ZM51.5848 18.64C49.6528 18.64 48.8408 19.06 48.6168 20.264H54.5808C54.3848 19.06 53.5448 18.64 51.5848 18.64ZM68.9534 29.28C64.1654 29.28 60.8054 27.236 60.8054 21.944C60.8054 17.352 64.1374 14.608 68.8414 14.608C73.7134 14.608 76.8214 17.044 76.8214 21.58C76.8214 22.056 76.7934 22.42 76.7374 22.924H65.6774C65.7614 24.632 66.5174 25.108 68.7574 25.108C70.8854 25.108 71.4454 24.744 71.4454 23.904V23.596H76.7094V23.932C76.7094 27.068 73.7134 29.28 68.9534 29.28ZM68.7294 18.64C66.7974 18.64 65.9854 19.06 65.7614 20.264H71.7254C71.5294 19.06 70.6894 18.64 68.7294 18.64ZM83.4939 29H78.2299V14.888H83.1579V19.172H83.4379C83.7459 16.82 85.2859 14.608 89.0659 14.608C92.8739 14.608 94.6659 16.904 94.6659 19.956V29H89.4019V21.888C89.4019 19.928 88.6739 19.312 86.3779 19.312C84.0539 19.312 83.4939 19.9 83.4939 21.72V29Z" fill="#2B2E29"/>
<path d="M107.917 29.28C102.009 29.28 98.5652 25.472 98.5652 19.62C98.5652 13.768 102.597 9.96 109.429 9.96C115.785 9.96 119.565 12.76 119.565 17.408V17.604H113.685V17.408C113.685 15.672 112.621 15 109.289 15C105.257 15 104.165 15.896 104.165 19.62C104.165 23.344 105.201 24.24 109.009 24.24C112.901 24.24 114.021 24.044 114.273 22.616H108.505V18.752H119.593V29H114.693V24.996H114.413C113.909 27.18 112.313 29.28 107.917 29.28ZM128.97 29.28C124.07 29.28 120.738 26.508 120.738 21.944C120.738 17.352 124.07 14.608 128.97 14.608C133.87 14.608 137.202 17.352 137.202 21.944C137.202 26.508 133.87 29.28 128.97 29.28ZM128.97 24.632C131.35 24.632 131.994 23.988 131.994 21.944C131.994 19.9 131.35 19.228 128.97 19.228C126.59 19.228 125.946 19.9 125.946 21.944C125.946 23.988 126.59 24.632 128.97 24.632Z" fill="#2B2E29"/>
</svg>
